Coordinates
version=1
nRows=10
nColumns=34
inDegrees=yes

Units are S.I. units (second, meters, Newtons, ...)
If the header above contains a line with 'inDegrees', this indicates whether rotational values are in degrees (yes) or radians (no).

endheader
time	pelvis_tilt	pelvis_list	pelvis_rotation	pelvis_tx	pelvis_ty	pelvis_tz	hip_flexion_r	hip_adduction_r	hip_rotation_r	knee_angle_r	ankle_angle_r	subtalar_angle_r	mtp_angle_r	hip_flexion_l	hip_adduction_l	hip_rotation_l	knee_angle_l	ankle_angle_l	subtalar_angle_l	mtp_angle_l	lumbar_extension	lumbar_bending	lumbar_rotation	arm_flex_r	arm_add_r	arm_rot_r	elbow_flex_r	pro_sup_r	arm_flex_l	arm_add_l	arm_rot_l	elbow_flex_l	pro_sup_l
      0.00000000	     22.36159032	      0.17757872	      3.16103153	      0.27031223	      0.66741636	     -0.15269718	     69.60140385	    -11.73713417	     -0.49772893	    101.04060769	    -12.83918011	    -34.99982769	      0.00000000	     68.36055619	    -11.71968802	     -0.49902485	     98.29125436	      4.05943573	     -6.46872406	      0.00000000	    -38.65144142	      5.87189818	      2.51493458	      3.45817144	     -8.32038776	      0.09190087	     41.99711409	     42.72972938	    175.04926053	    -16.95214400	     83.47283129	     17.32835636	     29.33509031
      0.01666670	     24.42017801	     -1.38694728	      4.11987437	      0.27826646	      0.67122407	     -0.15542558	     67.66640843	    -10.08980971	     -2.52078961	    100.37831644	     -5.28625034	    -32.22516083	      0.00000000	     69.87285598	     -8.60658785	      2.24017141	    101.41632018	      9.67483450	     -5.53263535	      0.00000000	    -38.08888843	      7.57209199	     -1.19460805	      5.75448871	     -8.56589113	     -4.45426817	     40.22391758	     90.23062621	    173.92190935	    -17.65528001	     90.10670369	     13.85443965	     45.89302415
      0.03333330	     25.57177887	     -0.97050760	      3.94673663	      0.28287032	      0.67446620	     -0.15551340	     66.56725821	    -10.29921494	     -2.70966752	    100.15414291	     -0.75600455	    -29.72915034	      0.00000000	     68.48705428	     -7.77856624	      2.14168441	    100.98274627	     10.36346506	     -7.81217073	      0.00000000	    -38.18547148	      6.90416531	     -1.53532466	      5.52066027	     -7.86264468	     -8.69624925	     42.07605952	     89.20283378	    172.30985776	    -18.80679426	     85.45999453	     17.63639694	     46.68296723
      0.05000000	     26.50226798	     -0.36819485	      3.43743523	      0.28258345	      0.67576275	     -0.15355863	     65.22608653	    -10.03327593	     -2.52611536	     99.57808705	      1.60431780	    -28.47224093	      0.00000000	     66.79658694	     -7.95347348	      1.56714302	    100.88781480	      9.95596755	     -8.35963500	      0.00000000	    -38.85072699	      5.60553373	     -1.99287923	      5.45558552	     -6.79976117	    -10.01262428	     43.15103741	     89.35398783	    170.80597931	    -20.13125468	     79.13745144	     22.38240821	     47.88705123
      0.06666670	     27.31111483	      0.03355858	      3.09431064	      0.28403072	      0.68034578	     -0.15321081	     63.69936864	     -9.80714126	     -2.35302314	     99.16532048	      3.20478391	    -27.87278497	      0.00000000	     65.30724852	     -7.80616926	      1.22771710	    100.57525373	      9.25756033	     -9.85852050	      0.00000000	    -39.46934776	      4.95436458	     -2.12730684	      5.14123661	     -6.21006911	    -11.97316531	     42.31137286	     90.79434297	    168.90626226	    -21.69360913	     73.06870402	     26.78546381	     49.42848151
      0.08333330	     27.78522718	      0.27202769	      2.59195663	      0.28284355	      0.68007599	     -0.15211117	     62.96435987	     -9.54894092	     -1.86081753	     99.22243718	      3.57057944	    -27.98321208	      0.00000000	     64.41876835	     -7.92075674	      0.90356654	    100.30434010	      9.21760150	    -10.08611620	      0.00000000	    -39.74668659	      4.29732819	     -1.61194070	      4.91700023	     -6.30115382	    -12.32307439	     41.13882124	     93.79837013	    165.88822983	    -23.26766809	     67.23331956	     31.35261584	     51.63319799
      0.10000000	     28.16370089	      0.62707417	      2.41887183	      0.28256792	      0.68029481	     -0.15176572	     62.70606108	     -9.71101535	     -1.24819759	     99.40800369	      3.63700894	    -27.84560982	      0.00000000	     63.68506056	     -7.91066209	      0.36913679	     99.83588083	      9.48556768	    -10.06510530	      0.00000000	    -40.30913526	      3.73340717	     -0.97492011	      4.46818477	     -6.35634050	    -13.21491467	     40.57121351	     97.03698129	    163.32492154	    -25.07125249	     62.33324748	     36.71789894	     54.11769050
      0.11666670	     29.02139670	      0.88843940	      2.23939120	      0.28100580	      0.68013889	     -0.15091253	     61.98039484	     -9.82841336	     -0.85674038	     99.64522205	      4.08118457	    -27.40031216	      0.00000000	     62.73459904	     -7.93560430	      0.08987261	     99.81890864	      9.59121100	    -10.18946727	      0.00000000	    -41.26668630	      3.31678457	     -0.84565544	      4.63205393	     -6.40645966	    -13.24346495	     40.46530197	     97.89218068	    161.23405259	    -27.63193393	     60.46486384	     42.58178316	     54.96757709
      0.13333330	     29.43754059	      0.96705120	      2.05273225	      0.27214780	      0.67891096	     -0.14639856	     61.63066112	     -9.59097350	     -0.79035352	     99.39463154	      3.69465042	    -27.63321500	      0.00000000	     62.36395354	     -8.08299913	     -0.02028044	     99.59568247	      9.50592541	    -10.10254586	      0.00000000	    -42.23763652	      2.90615549	     -0.08419668	      4.99872539	     -6.69649508	    -12.89994529	     40.92392190	     98.69997688	    158.32242194	    -30.34483063	     59.47301529	     48.40716610	     56.04780198
      0.15000000	     29.60784451	      1.01195612	      2.20209038	      0.27258263	      0.67887241	     -0.14649085	     61.58022150	     -9.68986355	     -0.88449360	     99.22641112	      3.31451280	    -27.86474186	      0.00000000	     62.15766842	     -8.18913749	     -0.01525870	     99.26005465	      9.38826511	     -9.97169015	      0.00000000	    -42.76297856	      2.73919264	      0.35814881	      5.05800342	     -6.92916610	    -12.94675982	     41.25446205	     99.27143610	    155.10310478	    -33.20371213	     59.80910554	     53.62673543	     57.28020203
